<svg width="67" height="74" viewBox="0 0 67 74" fill="none" xmlns="http://www.w3.org/2000/svg">
<path d="M36.2923 64.75V70.9167H30.709V64.75H8.37565C6.83387 64.75 5.58398 63.3696 5.58398 61.6667V12.3333C5.58398 10.6305 6.83387 9.25 8.37565 9.25H25.1257C28.4609 9.25 31.4546 10.8649 33.5007 13.4254C35.5467 10.8649 38.5404 9.25 41.8757 9.25H58.6257C60.1675 9.25 61.4173 10.6305 61.4173 12.3333V61.6667C61.4173 63.3696 60.1675 64.75 58.6257 64.75H36.2923ZM55.834 58.5833V15.4167H41.8757C38.792 15.4167 36.2923 18.1776 36.2923 21.5833V58.5833H55.834ZM30.709 58.5833V21.5833C30.709 18.1776 28.2093 15.4167 25.1257 15.4167H11.1673V58.5833H30.709Z" fill="white"/>
</svg>
