<svg width="63" height="62" viewBox="0 0 63 62" fill="none" xmlns="http://www.w3.org/2000/svg">
<path d="M42.482 11.2582L51.4647 20.2409M19.4773 18.0488H10.0285C9.19318 18.0488 8.39207 18.3806 7.8014 18.9713C7.21074 19.5619 6.87891 20.363 6.87891 21.1984V52.6944C6.87891 53.5297 7.21074 54.3309 7.8014 54.9215C8.39207 55.5122 9.19318 55.844 10.0285 55.844H44.6742C45.5095 55.844 46.3106 55.5122 46.9013 54.9215C47.4919 54.3309 47.8238 53.5297 47.8238 52.6944V38.5212M55.4112 7.30862C56.0013 7.89856 56.4695 8.59899 56.7889 9.36989C57.1083 10.1408 57.2727 10.9671 57.2727 11.8015C57.2727 12.636 57.1083 13.4623 56.7889 14.2332C56.4695 15.0041 56.0013 15.7045 55.4112 16.2944L33.8553 37.8503L22.6269 40.096L24.8726 28.8677L46.4285 7.31177C47.018 6.72133 47.718 6.25292 48.4887 5.93332C49.2594 5.61372 50.0855 5.44922 50.9198 5.44922C51.7541 5.44922 52.5803 5.61372 53.3509 5.93332C54.1216 6.25292 54.8217 6.72133 55.4112 7.31177V7.30862Z" stroke="white" stroke-width="5.32328" stroke-linecap="round" stroke-linejoin="round"/>
</svg>
