<svg width="14" height="14" viewBox="0 0 14 14" fill="none" xmlns="http://www.w3.org/2000/svg">
<path d="M12.2216 1.77683C11.83 1.38571 11.2992 1.16602 10.7457 1.16602C10.1923 1.16602 9.66146 1.38571 9.26989 1.77683L2.29789 8.74883C2.06079 8.98569 1.89417 9.28378 1.81664 9.60983L1.17789 12.2943C1.16059 12.367 1.16222 12.443 1.1826 12.5149C1.20298 12.5868 1.24145 12.6523 1.29433 12.7051C1.34721 12.7579 1.41274 12.7963 1.48467 12.8166C1.5566 12.8369 1.63253 12.8385 1.70522 12.8211L4.38914 12.1818C4.7154 12.1043 5.0137 11.9377 5.25072 11.7005L12.2216 4.72967C12.6127 4.3381 12.8324 3.80728 12.8324 3.25383C12.8324 2.70039 12.6127 2.16957 12.2216 1.778M9.88822 2.39633C10.0008 2.28372 10.1345 2.1944 10.2816 2.13346C10.4288 2.07251 10.5865 2.04115 10.7457 2.04115C10.905 2.04115 11.0627 2.07251 11.2098 2.13346C11.3569 2.1944 11.4906 2.28372 11.6032 2.39633C11.7158 2.50894 11.8052 2.64263 11.8661 2.78976C11.927 2.93689 11.9584 3.09458 11.9584 3.25383C11.9584 3.41309 11.927 3.57078 11.8661 3.71791C11.8052 3.86504 11.7158 3.99872 11.6032 4.11133L11.0829 4.62992L9.36789 2.9155L9.88822 2.39633ZM8.74956 3.535L10.4646 5.24883L4.63122 11.0822C4.50872 11.2047 4.35472 11.2904 4.18614 11.3307L2.19347 11.8055L2.66772 9.81283C2.70797 9.64367 2.79431 9.48967 2.91681 9.36717L8.74956 3.535Z" fill="#0699FF"/>
</svg>
