<svg width="1280" height="839" viewBox="0 0 1280 839" fill="none" xmlns="http://www.w3.org/2000/svg">
<path opacity="0.25" d="M640 72.4046C478.667 22.8152 256.889 -62.1392 0 72.4046V839H1280V72.4046C997.333 189.405 801.333 121.994 640 72.4046Z" fill="#0699FF"/>
<path opacity="0.25" d="M640 72.5154C961.778 -26.8844 1075.11 -21.4211 1280 72.5154V839H0V72.5154C185.778 144.752 318.222 171.915 640 72.5154Z" fill="#0699FF"/>
<path opacity="0.25" d="M290 137.997C290 137.997 624 -172.498 981 137.997C981 137.997 893.959 138.838 800.701 118.137C707.442 97.4368 639.941 73.0584 639.941 73.0584C639.941 73.0584 579.989 93.0935 480.958 115.816C381.926 138.538 290 137.997 290 137.997Z" fill="#92D2FF"/>
</svg>
